<?xml version="1.0" encoding="utf-8"?>
<!-- Generator: Adobe Illustrator 19.2.1, SVG Export Plug-In . SVG Version: 6.00 Build 0)  -->
<svg version="1.1" id="Layer_1" xmlns="http://www.w3.org/2000/svg" xmlns:xlink="http://www.w3.org/1999/xlink" x="0px" y="0px"
	 viewBox="0 0 799.6 196.7" style="enable-background:new 0 0 799.6 196.7;" xml:space="preserve">
<style type="text/css">
	.st0{fill:#00B0EB;}
	.st1{fill:#FFFFFF;}
	.st2{fill-rule:evenodd;clip-rule:evenodd;fill:#6B6B6A;}
	.st3{fill-rule:evenodd;clip-rule:evenodd;fill:#00B0EB;}
</style>
<g>
	<path class="st0" d="M0,52.5C0,38,11.8,26.2,26.3,26.2H122c14.5,0,26.3,11.8,26.3,26.3v95.6c0,14.5-11.8,26.3-26.3,26.3H26.3
		C11.8,174.5,0,162.7,0,148.2V52.5z"/>
</g>
<path class="st1" d="M38.1,55.1c0.3,0,0.6,0,1,0.1c0.4,0,0.8,0.1,1.3,0.2c0.4,0.1,0.9,0.2,1.5,0.4c0.6,0.1,1.3,0.3,2,0.6l64.6,26.2
	c0.9,0.3,1.7,0.8,2.2,1.4c0.5,0.5,1,1.4,1.3,2.7c0.3,1.2,0.5,3,0.6,5.2c0.1,2.1,0.2,5,0.2,8.5c0,3.5-0.1,6.3-0.2,8.5
	c-0.1,2.2-0.3,3.8-0.6,5.1c-0.3,1.2-0.7,2.2-1.3,2.7c-0.6,0.5-1.3,0.9-2.2,1.3l-64.6,26.2c-1.1,0.4-2,0.7-2.9,1
	c-0.9,0.2-1.5,0.3-1.8,0.4h-1c-0.5,0-1-0.2-1.4-0.5c-0.4-0.4-0.8-1-1-2c-0.3-0.9-0.5-2.1-0.6-3.7c-0.1-1.6-0.2-3.7-0.2-6.1
	c0-2.7,0.1-4.8,0.2-6.5c0.1-1.6,0.3-2.9,0.6-3.8c0.2-1,0.6-1.7,1-2.1c0.4-0.4,1-0.7,1.6-1l52.4-19.9l2-0.6l-2-0.6L38.4,79.5
	c-0.6-0.2-1.2-0.5-1.6-0.9c-0.5-0.5-0.8-1.1-1-2.1c-0.3-0.9-0.5-2.1-0.6-3.6c-0.2-1.6-0.2-3.6-0.2-6.1c0-2.4,0.1-4.4,0.2-5.9
	c0.1-1.6,0.3-2.8,0.6-3.6c0.3-0.8,0.6-1.4,1-1.8C37.1,55.3,37.5,55.2,38.1,55.1z"/>
<path class="st2" d="M443.4,156.5c0,3.1-0.7,5.9-2,8.3c-1.3,2.4-3.1,4.4-5.5,6c-2.4,1.6-5.2,2.8-8.4,3.6c-3.2,0.8-6.7,1.2-10.5,1.2
	c-2.3,0-4.5-0.2-6.5-0.5c-2-0.3-3.9-0.7-5.5-1.1c-1.6-0.5-3-1-4.1-1.5c-1.1-0.5-1.9-0.9-2.4-1.4c-0.5-0.5-0.9-1.1-1.2-2
	c-0.3-0.9-0.4-2.3-0.4-4.2c0-1.2,0-2.1,0.1-2.9c0.1-0.7,0.2-1.3,0.4-1.7c0.2-0.5,0.4-0.7,0.7-0.9c0.3-0.2,0.6-0.2,1-0.2
	c0.5,0,1.2,0.3,2.2,0.8c1,0.5,2.2,1.1,3.7,1.7c1.5,0.6,3.1,1.2,5,1.7c2,0.5,4.2,0.8,6.6,0.8c1.5,0,2.9-0.1,4.1-0.4
	c1.2-0.3,2.3-0.7,3.1-1.2c0.9-0.5,1.6-1.2,2-2c0.5-0.8,0.7-1.8,0.7-2.8c0-1.2-0.4-2.3-1.3-3.2c-0.8-0.9-1.9-1.7-3.3-2.4
	c-1.4-0.7-2.9-1.3-4.7-1.9c-1.7-0.6-3.5-1.2-5.4-1.9c-1.8-0.7-3.6-1.5-5.4-2.4c-1.7-0.9-3.3-2-4.7-3.3c-1.4-1.3-2.5-2.9-3.3-4.8
	c-0.8-1.9-1.2-4.1-1.2-6.7c0-2.6,0.6-5.1,1.7-7.3c1.1-2.2,2.8-4.1,4.9-5.7c2.1-1.6,4.7-2.8,7.8-3.7c3.1-0.9,6.5-1.3,10.4-1.3
	c1.9,0,3.7,0.1,5.5,0.4c1.8,0.2,3.5,0.6,4.9,0.9c1.5,0.4,2.7,0.8,3.7,1.2c1,0.4,1.7,0.8,2.1,1.1c0.5,0.3,0.8,0.6,1,0.9
	c0.2,0.3,0.3,0.7,0.4,1.1c0.1,0.4,0.2,1,0.2,1.6c0.1,0.6,0.1,1.4,0.1,2.4c0,1.1,0,2-0.1,2.7c0,0.7-0.2,1.3-0.3,1.7
	c-0.1,0.4-0.3,0.7-0.6,0.9c-0.3,0.1-0.6,0.2-1,0.2c-0.4,0-1-0.2-1.9-0.6c-0.9-0.5-2-0.9-3.3-1.4c-1.3-0.5-2.8-0.9-4.5-1.4
	c-1.7-0.5-3.6-0.7-5.8-0.7c-1.5,0-2.9,0.1-4,0.4c-1.1,0.3-2.1,0.7-2.8,1.2c-0.7,0.5-1.3,1.2-1.6,1.9c-0.4,0.7-0.5,1.5-0.5,2.3
	c0,1.3,0.4,2.4,1.3,3.2c0.9,0.9,2,1.6,3.4,2.3c1.4,0.7,3,1.3,4.8,1.9c1.8,0.6,3.6,1.2,5.5,1.9c1.9,0.7,3.7,1.4,5.5,2.4
	c1.8,0.9,3.4,2,4.8,3.3c1.4,1.3,2.5,2.9,3.4,4.8C442.9,151.8,443.4,153.9,443.4,156.5z M370.4,144.8c0-2.4-0.2-4.6-0.6-6.8
	c-0.4-2.2-1-4.1-2-5.8c-0.9-1.7-2.1-3-3.7-4c-1.5-1-3.4-1.5-5.7-1.5c-1.1,0-2.3,0.2-3.4,0.5c-1.1,0.3-2.2,0.8-3.4,1.5
	c-1.1,0.7-2.3,1.6-3.5,2.7c-1.2,1.1-2.5,2.5-3.9,4.2v18.2c2.4,2.8,4.7,4.9,6.9,6.4c2.2,1.5,4.5,2.2,6.8,2.2c2.2,0,4.1-0.5,5.7-1.5
	c1.6-1,2.9-2.4,3.9-4c1-1.7,1.7-3.6,2.2-5.7C370.1,149,370.4,146.9,370.4,144.8z M388.2,143.6c0,4.9-0.6,9.4-1.8,13.3
	c-1.1,3.9-2.8,7.3-5,10c-2.2,2.8-5,4.9-8.3,6.4c-3.3,1.5-7.1,2.2-11.4,2.2c-1.8,0-3.4-0.2-4.9-0.5c-1.5-0.3-2.9-0.7-4.3-1.4
	c-1.4-0.7-2.7-1.5-4.1-2.4c-1.4-0.9-2.8-2.1-4.2-3.3v26c0,0.4-0.1,0.8-0.4,1.1c-0.3,0.3-0.8,0.6-1.4,0.8c-0.6,0.2-1.5,0.4-2.6,0.6
	c-1.1,0.1-2.5,0.2-4.2,0.2c-1.7,0-3.1-0.1-4.2-0.2c-1.1-0.1-2-0.3-2.7-0.6c-0.6-0.2-1.1-0.5-1.4-0.8c-0.3-0.3-0.4-0.7-0.4-1.1v-77.2
	c0-0.4,0.1-0.8,0.3-1.1c0.2-0.3,0.6-0.6,1.2-0.8c0.6-0.2,1.3-0.3,2.3-0.4c1-0.1,2.1-0.2,3.5-0.2c1.4,0,2.5,0.1,3.4,0.2
	c1,0.1,1.7,0.2,2.2,0.4c0.6,0.2,1,0.5,1.2,0.8c0.2,0.3,0.3,0.6,0.3,1.1v6.5c1.8-1.7,3.5-3.1,5.2-4.3c1.7-1.3,3.5-2.3,5.2-3.2
	c1.8-0.9,3.6-1.5,5.5-1.9c1.9-0.4,3.9-0.6,6.1-0.6c4.5,0,8.2,0.8,11.4,2.4c3.1,1.6,5.7,3.7,7.6,6.5c2,2.8,3.4,6,4.4,9.7
	C387.8,135.5,388.2,139.5,388.2,143.6z M296.9,144.8c0-2.4-0.2-4.6-0.6-6.8c-0.4-2.2-1-4.1-2-5.8c-0.9-1.7-2.1-3-3.7-4
	c-1.5-1-3.4-1.5-5.7-1.5c-1.1,0-2.3,0.2-3.4,0.5c-1.1,0.3-2.2,0.8-3.4,1.5c-1.1,0.7-2.3,1.6-3.5,2.7c-1.2,1.1-2.5,2.5-3.9,4.2v18.2
	c2.4,2.8,4.7,4.9,6.9,6.4c2.2,1.5,4.5,2.2,6.8,2.2c2.2,0,4.1-0.5,5.7-1.5c1.6-1,2.9-2.4,3.9-4c1-1.7,1.7-3.6,2.2-5.7
	C296.6,149,296.9,146.9,296.9,144.8z M314.7,143.6c0,4.9-0.6,9.4-1.8,13.3c-1.1,3.9-2.8,7.3-5,10c-2.2,2.8-5,4.9-8.3,6.4
	c-3.3,1.5-7.1,2.2-11.4,2.2c-1.8,0-3.4-0.2-4.9-0.5c-1.5-0.3-2.9-0.7-4.3-1.4c-1.4-0.7-2.7-1.5-4.1-2.4c-1.4-0.9-2.8-2.1-4.2-3.3v26
	c0,0.4-0.1,0.8-0.4,1.1c-0.3,0.3-0.7,0.6-1.4,0.8c-0.6,0.2-1.5,0.4-2.6,0.6c-1.1,0.1-2.5,0.2-4.2,0.2c-1.7,0-3.1-0.1-4.2-0.2
	c-1.1-0.1-2-0.3-2.7-0.6c-0.6-0.2-1.1-0.5-1.4-0.8c-0.3-0.3-0.4-0.7-0.4-1.1v-77.2c0-0.4,0.1-0.8,0.3-1.1c0.2-0.3,0.6-0.6,1.2-0.8
	c0.6-0.2,1.3-0.3,2.3-0.4c1-0.1,2.1-0.2,3.5-0.2c1.4,0,2.5,0.1,3.4,0.2c1,0.1,1.7,0.2,2.2,0.4c0.6,0.2,1,0.5,1.2,0.8
	c0.2,0.3,0.3,0.6,0.3,1.1v6.5c1.8-1.7,3.5-3.1,5.2-4.3c1.7-1.3,3.5-2.3,5.2-3.2c1.8-0.9,3.6-1.5,5.5-1.9c1.9-0.4,3.9-0.6,6.1-0.6
	c4.5,0,8.3,0.8,11.4,2.4c3.1,1.6,5.7,3.7,7.6,6.5c2,2.8,3.5,6,4.4,9.7C314.3,135.5,314.7,139.5,314.7,143.6z M221,148.6h-6.5
	c-2.8,0-5.1,0.2-7.1,0.6c-2,0.4-3.5,0.9-4.8,1.7c-1.2,0.7-2.1,1.7-2.7,2.7c-0.5,1-0.8,2.2-0.8,3.6c0,2.3,0.8,4.1,2.4,5.4
	c1.6,1.3,3.9,2,6.7,2c2.4,0,4.6-0.6,6.6-1.7c2-1.1,4.1-2.7,6.2-4.9V148.6z M237.8,172.3c0,0.6-0.2,1-0.7,1.4
	c-0.5,0.3-1.2,0.6-2.2,0.7c-1,0.2-2.4,0.2-4.3,0.2c-2,0-3.5-0.1-4.5-0.2c-0.9-0.1-1.6-0.4-2-0.7c-0.4-0.3-0.5-0.8-0.5-1.4v-4.4
	c-2.5,2.4-5.4,4.3-8.6,5.7c-3.2,1.4-6.7,2-10.6,2c-3.2,0-6.2-0.4-8.9-1.2c-2.7-0.7-5-1.9-7-3.3c-2-1.5-3.5-3.4-4.6-5.6
	c-1.1-2.2-1.6-4.8-1.6-7.8c0-3.2,0.7-6,2-8.4c1.4-2.4,3.5-4.4,6.2-5.9c2.8-1.6,6.2-2.7,10.3-3.5c4.1-0.7,8.8-1.1,14.2-1.1h5.9v-3.3
	c0-1.7-0.2-3.2-0.6-4.5c-0.4-1.3-1-2.4-1.9-3.3c-0.9-0.9-2-1.5-3.5-1.9c-1.5-0.4-3.3-0.6-5.5-0.6c-2.9,0-5.4,0.3-7.7,0.9
	c-2.2,0.6-4.2,1.2-5.9,1.9c-1.7,0.7-3.2,1.3-4.4,1.9c-1.1,0.6-2.1,0.9-2.8,0.9c-0.5,0-1-0.1-1.4-0.4c-0.4-0.3-0.7-0.7-1-1.2
	c-0.2-0.5-0.4-1.2-0.5-2c-0.1-0.8-0.2-1.7-0.2-2.6c0-1.3,0.1-2.3,0.3-3c0.2-0.7,0.7-1.4,1.3-2c0.6-0.6,1.8-1.3,3.3-2
	c1.6-0.7,3.5-1.4,5.6-2c2.1-0.6,4.5-1.1,7-1.5c2.5-0.4,5.2-0.6,7.8-0.6c4.8,0,8.8,0.4,12.2,1.3c3.4,0.8,6.2,2.1,8.4,3.9
	c2.2,1.7,3.8,4,4.8,6.8c1,2.8,1.5,6.1,1.5,9.9V172.3z"/>
<path class="st3" d="M445.2,84c0-0.2,0-0.5-0.1-0.7c0-0.3,0-0.6-0.1-1c0-0.3-0.1-0.7-0.3-1.2c-0.1-0.5-0.2-1-0.4-1.5l-18.3-50
	c-0.2-0.7-0.5-1.3-1-1.7c-0.4-0.4-1-0.7-1.9-1c-0.9-0.2-2.1-0.4-3.6-0.5c-1.5-0.1-3.5-0.1-5.9-0.1c-2.4,0-4.4,0.1-5.9,0.2
	c-1.5,0.1-2.7,0.2-3.5,0.5c-0.9,0.2-1.5,0.6-1.9,1c-0.4,0.5-0.7,1-0.9,1.7l-18.3,50c-0.3,0.8-0.5,1.6-0.7,2.2
	c-0.1,0.7-0.2,1.1-0.3,1.4V84c0,0.4,0.1,0.8,0.3,1.1c0.3,0.3,0.7,0.6,1.4,0.8c0.6,0.2,1.5,0.3,2.6,0.4c1.1,0.1,2.5,0.1,4.2,0.1
	c1.9,0,3.4-0.1,4.5-0.2c1.1-0.1,2-0.2,2.7-0.4c0.7-0.2,1.2-0.4,1.4-0.8c0.3-0.3,0.5-0.7,0.7-1.2l13.8-40.6l0.4-1.5l0.4,1.5
	l13.6,40.6c0.1,0.5,0.3,0.9,0.6,1.2c0.3,0.4,0.8,0.6,1.4,0.8c0.6,0.2,1.5,0.4,2.5,0.4c1.1,0.1,2.5,0.2,4.2,0.2c1.7,0,3,0,4.1-0.1
	c1.1-0.1,1.9-0.2,2.5-0.4c0.6-0.2,1-0.5,1.2-0.8C445.1,84.8,445.2,84.4,445.2,84z M752.8,50.3c0.1-4.4-0.8-7.8-2.9-10.3
	c-2-2.5-5.2-3.8-9.5-3.8c-2.2,0-4.1,0.4-5.7,1.1c-1.6,0.7-2.9,1.8-4,3c-1,1.2-1.9,2.7-2.5,4.5c-0.5,1.7-0.9,3.5-1,5.5H752.8z
	 M769.4,54.7c0,1.9-0.5,3.3-1.4,4.2c-0.9,0.9-2.2,1.4-3.8,1.4h-37c0,2.4,0.3,4.5,0.9,6.4c0.6,1.9,1.6,3.5,2.9,4.9
	c1.4,1.3,3.1,2.3,5.2,3c2.1,0.7,4.7,1.1,7.6,1.1c3,0,5.6-0.2,7.9-0.6c2.3-0.4,4.2-0.8,5.9-1.3c1.7-0.5,3.1-0.9,4.2-1.3
	c1.1-0.4,2-0.6,2.7-0.6c0.4,0,0.8,0.1,1,0.2c0.3,0.1,0.5,0.4,0.7,0.7c0.2,0.4,0.3,0.9,0.3,1.6c0.1,0.7,0.1,1.5,0.1,2.5
	c0,0.9,0,1.7-0.1,2.4c0,0.6-0.1,1.2-0.2,1.6c-0.1,0.5-0.2,0.8-0.4,1.2c-0.2,0.3-0.4,0.6-0.7,0.9c-0.3,0.3-1.1,0.7-2.4,1.2
	c-1.3,0.5-3,1-5,1.5c-2,0.5-4.4,0.8-7,1.2c-2.6,0.4-5.5,0.6-8.5,0.6c-5.4,0-10.2-0.6-14.2-1.9c-4-1.2-7.4-3.1-10.2-5.6
	c-2.7-2.5-4.8-5.7-6.1-9.5c-1.3-3.8-2-8.3-2-13.5c0-4.9,0.7-9.3,2.1-13.3c1.4-4,3.4-7.3,6.1-10c2.7-2.8,5.9-4.9,9.7-6.3
	c3.9-1.4,8.2-2.2,13-2.2c5.1,0,9.4,0.7,13,2c3.6,1.4,6.6,3.3,8.9,5.7c2.3,2.4,4,5.2,5.1,8.6c1.1,3.3,1.6,6.9,1.6,10.8V54.7z
	 M686.5,89.7c0-1.9-0.8-3.3-2.5-4.3c-1.6-1-3.9-1.5-6.7-1.6l-12.2-0.3c-1.2,0.8-2.1,1.5-2.9,2.3c-0.7,0.7-1.3,1.4-1.7,2
	c-0.4,0.7-0.7,1.3-0.8,1.9c-0.1,0.6-0.2,1.3-0.2,1.9c0,2.1,1.1,3.6,3.4,4.7c2.3,1.1,5.6,1.6,9.7,1.6c2.6,0,4.8-0.2,6.5-0.7
	c1.8-0.5,3.2-1.1,4.3-1.9c1.1-0.8,1.9-1.7,2.3-2.7C686.3,91.8,686.5,90.8,686.5,89.7z M682.5,45.6c0-3-0.9-5.3-2.7-6.9
	c-1.8-1.7-4.4-2.5-7.7-2.5c-1.7,0-3.2,0.3-4.4,0.8c-1.3,0.5-2.3,1.2-3.2,2.1c-0.8,0.9-1.4,1.9-1.8,3.1c-0.4,1.2-0.6,2.4-0.6,3.7
	c0,2.8,0.9,5,2.7,6.7c1.8,1.6,4.3,2.4,7.6,2.4c1.7,0,3.2-0.2,4.5-0.7c1.3-0.5,2.3-1.2,3.1-2c0.9-0.9,1.5-1.9,1.9-3
	C682.2,48,682.5,46.8,682.5,45.6z M704.5,32.5c0,2-0.2,3.5-0.7,4.4c-0.5,0.9-1.1,1.4-1.8,1.4h-7.2c1,1,1.7,2.1,2.1,3.4
	c0.5,1.2,0.7,2.5,0.7,3.9c0,3.2-0.6,6.1-1.8,8.6c-1.2,2.5-2.9,4.6-5.1,6.3c-2.2,1.7-4.8,3-8,3.9c-3.1,0.9-6.5,1.3-10.4,1.3
	c-2,0-3.8-0.2-5.6-0.6c-1.8-0.5-3.1-1-4.1-1.5c-0.5,0.5-1,1.2-1.5,1.9c-0.4,0.7-0.6,1.6-0.6,2.5c0,1.2,0.6,2.2,1.7,3
	c1.2,0.7,2.8,1.2,4.9,1.2l14.8,0.5c3.5,0.1,6.5,0.6,9.2,1.4c2.7,0.7,5,1.8,6.8,3.2c1.9,1.4,3.3,3,4.2,5c1,1.9,1.5,4.1,1.5,6.6
	c0,2.7-0.7,5.3-2,7.7c-1.3,2.4-3.3,4.5-5.9,6.3c-2.6,1.8-6,3.2-10,4.2c-4,1-8.6,1.5-13.9,1.5c-5.2,0-9.6-0.4-13.3-1.1
	c-3.6-0.7-6.6-1.8-9-3.1c-2.3-1.3-4-2.9-5.1-4.8c-1-1.8-1.6-3.8-1.6-6c0-1.4,0.2-2.7,0.5-3.9c0.4-1.2,1-2.4,1.7-3.6
	c0.8-1.1,1.7-2.2,2.8-3.2c1.1-1,2.3-2,3.8-3c-2-1-3.5-2.2-4.6-3.8c-1-1.7-1.6-3.4-1.6-5.4c0-2.4,0.6-4.6,1.8-6.6
	c1.2-2,2.8-3.8,4.8-5.5c-1.6-1.4-2.9-3.2-3.8-5.2c-1-2-1.4-4.5-1.4-7.6c0-3.2,0.6-6.1,1.8-8.6c1.3-2.6,3-4.7,5.3-6.4
	c2.2-1.8,4.9-3.1,8-4c3.1-1,6.5-1.4,10.2-1.4c1.9,0,3.7,0.1,5.5,0.3c1.8,0.2,3.4,0.5,4.9,0.9h19.3c0.8,0,1.4,0.5,1.8,1.4
	C704.2,28.9,704.5,30.4,704.5,32.5z M615.9,60.5h-6.5c-2.8,0-5.1,0.2-7.1,0.6c-2,0.4-3.5,0.9-4.8,1.7c-1.2,0.7-2.1,1.7-2.7,2.7
	c-0.5,1-0.8,2.2-0.8,3.6c0,2.3,0.8,4.1,2.4,5.5c1.6,1.3,3.9,2,6.7,2c2.4,0,4.6-0.6,6.6-1.7c2-1.1,4.1-2.7,6.2-4.9V60.5z M632.7,84.1
	c0,0.6-0.2,1-0.7,1.4c-0.5,0.3-1.2,0.6-2.2,0.7c-1,0.2-2.4,0.2-4.3,0.2c-2,0-3.5-0.1-4.5-0.2c-0.9-0.1-1.6-0.4-2-0.7
	c-0.4-0.3-0.5-0.8-0.5-1.4v-4.4c-2.5,2.4-5.4,4.3-8.6,5.7c-3.2,1.4-6.7,2-10.6,2c-3.2,0-6.2-0.4-8.9-1.2c-2.7-0.7-5-1.9-7-3.3
	c-2-1.5-3.5-3.4-4.6-5.6c-1.1-2.2-1.6-4.8-1.6-7.8c0-3.2,0.7-6,2-8.4c1.4-2.4,3.5-4.4,6.2-5.9c2.8-1.6,6.2-2.7,10.3-3.5
	c4.1-0.7,8.8-1.1,14.2-1.1h5.9v-3.3c0-1.7-0.2-3.2-0.6-4.5c-0.4-1.3-1-2.4-1.9-3.3c-0.9-0.9-2-1.5-3.5-1.9c-1.5-0.4-3.3-0.6-5.5-0.6
	c-2.9,0-5.4,0.3-7.7,0.9c-2.2,0.6-4.2,1.2-5.9,1.9c-1.7,0.7-3.2,1.3-4.4,1.9c-1.1,0.6-2.1,0.9-2.8,0.9c-0.5,0-1-0.1-1.4-0.4
	c-0.4-0.3-0.7-0.7-1-1.2c-0.2-0.5-0.4-1.2-0.5-2c-0.1-0.8-0.2-1.7-0.2-2.6c0-1.3,0.1-2.3,0.3-3c0.2-0.7,0.7-1.4,1.3-2
	c0.6-0.6,1.7-1.3,3.3-2c1.6-0.7,3.5-1.4,5.6-2c2.1-0.6,4.5-1.1,7-1.5c2.5-0.4,5.2-0.6,7.8-0.6c4.8,0,8.8,0.4,12.2,1.3
	c3.4,0.8,6.2,2.1,8.4,3.9c2.2,1.7,3.8,4,4.8,6.8c1,2.8,1.5,6.1,1.5,9.9V84.1z M567.5,78.5c0,1.8-0.1,3.2-0.4,4.2c-0.2,1-0.5,1.6-1,2
	c-0.4,0.4-1,0.7-1.8,1.1c-0.8,0.3-1.7,0.5-2.8,0.7c-1,0.2-2.2,0.4-3.5,0.6c-1.2,0.1-2.5,0.2-3.8,0.2c-3.4,0-6.4-0.4-8.9-1.2
	c-2.5-0.8-4.6-2-6.2-3.6c-1.6-1.7-2.8-3.7-3.6-6.2c-0.8-2.5-1.2-5.4-1.2-8.8V39.2h-7.3c-0.9,0-1.5-0.5-2-1.4c-0.5-1-0.7-2.6-0.7-4.9
	c0-1.2,0-2.2,0.1-3c0.1-0.8,0.3-1.5,0.5-1.9c0.2-0.5,0.5-0.8,0.8-1.1c0.4-0.2,0.8-0.3,1.2-0.3h7.2V14.3c0-0.4,0.1-0.8,0.3-1.1
	c0.3-0.3,0.7-0.6,1.4-0.8c0.7-0.2,1.6-0.4,2.7-0.5c1.1-0.1,2.5-0.2,4.2-0.2c1.7,0,3.1,0.1,4.2,0.2c1.1,0.1,2,0.2,2.7,0.5
	c0.6,0.2,1.1,0.5,1.4,0.8c0.3,0.3,0.4,0.7,0.4,1.1v12.3h13.2c0.5,0,0.8,0.1,1.2,0.3c0.4,0.2,0.7,0.6,0.9,1.1
	c0.2,0.5,0.4,1.1,0.5,1.9c0.1,0.8,0.2,1.8,0.2,3c0,2.3-0.2,3.9-0.7,4.9c-0.5,1-1.1,1.4-2,1.4h-13.3v26c0,3,0.5,5.3,1.6,6.8
	c1,1.5,2.9,2.2,5.6,2.2c0.9,0,1.7-0.1,2.5-0.2c0.7-0.2,1.4-0.3,1.9-0.5l1.4-0.5c0.4-0.2,0.8-0.2,1.1-0.3c0.3,0,0.5,0.1,0.7,0.3
	c0.3,0.1,0.5,0.4,0.6,0.9c0.1,0.4,0.2,1,0.3,1.7C567.4,76.4,567.5,77.3,567.5,78.5z M516.1,84c0,0.4-0.1,0.8-0.4,1.1
	c-0.3,0.3-0.7,0.5-1.4,0.7c-0.6,0.2-1.5,0.4-2.7,0.4c-1.1,0.1-2.5,0.2-4.1,0.2c-1.7,0-3.1-0.1-4.2-0.2c-1.1-0.1-2-0.2-2.6-0.4
	c-0.6-0.2-1.1-0.5-1.4-0.7c-0.3-0.3-0.4-0.7-0.4-1.1V52.4c0-2.7-0.2-4.8-0.7-6.3c-0.4-1.5-1-2.8-1.8-3.9c-0.8-1.1-1.9-2-3.2-2.5
	c-1.3-0.6-2.8-0.9-4.5-0.9c-2.2,0-4.4,0.7-6.6,2.2c-2.2,1.4-4.5,3.6-7,6.3V84c0,0.4-0.1,0.8-0.4,1.1c-0.3,0.3-0.7,0.5-1.4,0.7
	c-0.6,0.2-1.5,0.4-2.6,0.4c-1.1,0.1-2.5,0.2-4.2,0.2c-1.7,0-3.1-0.1-4.2-0.2c-1.1-0.1-2-0.2-2.7-0.4c-0.6-0.2-1.1-0.5-1.4-0.7
	c-0.3-0.3-0.4-0.7-0.4-1.1V28.7c0-0.4,0.1-0.8,0.3-1.1c0.2-0.3,0.6-0.6,1.2-0.8c0.6-0.2,1.3-0.4,2.2-0.4c1-0.1,2.1-0.2,3.5-0.2
	c1.5,0,2.7,0.1,3.6,0.2c1,0.1,1.7,0.2,2.2,0.4c0.5,0.2,0.9,0.5,1.2,0.8c0.2,0.3,0.3,0.6,0.3,1.1v6.4c3.4-3.3,6.8-5.8,10.2-7.4
	c3.5-1.7,7.1-2.5,10.9-2.5c4.1,0,7.6,0.6,10.4,1.9c2.9,1.2,5.2,2.9,6.9,5.1c1.8,2.1,3,4.6,3.8,7.4c0.8,2.9,1.2,6.3,1.2,10.3V84z
	 M383,28.6c0,0.2,0,0.5-0.1,0.7c0,0.3,0,0.6-0.1,1c0,0.3-0.1,0.7-0.3,1.2c-0.1,0.5-0.2,1-0.4,1.5l-18.3,50c-0.2,0.7-0.5,1.3-1,1.7
	c-0.4,0.4-1,0.7-1.9,1c-0.9,0.2-2.1,0.4-3.6,0.5c-1.5,0.1-3.5,0.1-5.9,0.1c-2.4,0-4.4-0.1-5.9-0.2c-1.5-0.1-2.7-0.2-3.5-0.5
	c-0.9-0.2-1.5-0.6-1.9-1c-0.4-0.5-0.7-1-0.9-1.7l-18.3-50c-0.3-0.8-0.5-1.6-0.7-2.2c-0.1-0.7-0.2-1.1-0.3-1.4v-0.8
	c0-0.4,0.1-0.8,0.3-1.1c0.3-0.3,0.7-0.6,1.4-0.8c0.6-0.2,1.5-0.4,2.6-0.4c1.1-0.1,2.5-0.1,4.2-0.1c1.9,0,3.4,0.1,4.5,0.2
	c1.1,0.1,2,0.2,2.7,0.4c0.7,0.2,1.2,0.4,1.4,0.8c0.3,0.3,0.5,0.7,0.7,1.2l13.8,40.6L352,71l0.4-1.5L366,28.9
	c0.1-0.5,0.3-0.9,0.6-1.2c0.3-0.4,0.8-0.6,1.4-0.8c0.6-0.2,1.5-0.4,2.5-0.4c1.1-0.1,2.5-0.2,4.2-0.2c1.7,0,3,0,4.1,0.1
	c1.1,0.1,1.9,0.2,2.5,0.4c0.6,0.2,1,0.5,1.2,0.8C382.9,27.9,383,28.2,383,28.6z M294.2,47c-2.5-2.8-4.8-5-7.1-6.4
	c-2.2-1.5-4.6-2.2-7-2.2c-2.2,0-4.2,0.5-5.8,1.5c-1.6,1-2.9,2.3-3.9,4c-1,1.7-1.7,3.6-2.2,5.7c-0.5,2.1-0.7,4.2-0.7,6.4
	c0,2.3,0.2,4.6,0.6,6.8c0.4,2.2,1.1,4.2,2,5.9c1,1.7,2.2,3.1,3.7,4.1c1.5,1,3.5,1.5,5.9,1.5c1.2,0,2.3-0.1,3.4-0.4
	c1.1-0.3,2.3-0.8,3.4-1.5c1.2-0.7,2.4-1.6,3.6-2.7c1.2-1.2,2.6-2.6,4-4.2V47z M311.2,84c0,0.5-0.1,0.8-0.3,1.2
	c-0.2,0.3-0.6,0.5-1.2,0.7c-0.5,0.2-1.3,0.4-2.2,0.4c-0.9,0.1-2,0.1-3.4,0.1c-1.5,0-2.6,0-3.5-0.1c-0.9-0.1-1.7-0.2-2.3-0.4
	c-0.5-0.2-1-0.5-1.2-0.7c-0.2-0.3-0.3-0.7-0.3-1.2v-6.1c-3.1,3.1-6.4,5.4-9.9,7.1c-3.4,1.7-7.2,2.5-11.4,2.5
	c-4.6,0-8.6-0.8-11.8-2.4c-3.2-1.7-5.8-3.9-7.8-6.6c-2-2.8-3.5-6-4.4-9.7c-0.9-3.7-1.4-7.6-1.4-11.7c0-4.9,0.6-9.3,1.7-13.3
	c1.2-3.9,2.9-7.3,5.1-10c2.2-2.8,5-4.9,8.3-6.4c3.3-1.5,7.1-2.2,11.5-2.2c3.4,0,6.5,0.6,9.3,1.9c2.8,1.2,5.5,3.1,8.2,5.5V2.7
	c0-0.4,0.1-0.8,0.3-1.1c0.3-0.3,0.7-0.6,1.4-0.8c0.7-0.2,1.6-0.4,2.7-0.6c1.1-0.1,2.5-0.2,4.2-0.2c1.7,0,3.1,0.1,4.2,0.2
	c1.1,0.1,2,0.3,2.6,0.6c0.6,0.2,1.1,0.5,1.4,0.8c0.3,0.3,0.4,0.7,0.4,1.1V84z M221,60.5h-6.5c-2.8,0-5.1,0.2-7.1,0.6
	c-2,0.4-3.5,0.9-4.8,1.7c-1.2,0.7-2.1,1.7-2.7,2.7c-0.5,1-0.8,2.2-0.8,3.6c0,2.3,0.8,4.1,2.4,5.5c1.6,1.3,3.9,2,6.7,2
	c2.4,0,4.6-0.6,6.6-1.7c2-1.1,4.1-2.7,6.2-4.9V60.5z M237.8,84.1c0,0.6-0.2,1-0.7,1.4c-0.5,0.3-1.2,0.6-2.2,0.7
	c-1,0.2-2.4,0.2-4.3,0.2c-2,0-3.5-0.1-4.5-0.2c-0.9-0.1-1.6-0.4-2-0.7c-0.4-0.3-0.5-0.8-0.5-1.4v-4.4c-2.5,2.4-5.4,4.3-8.6,5.7
	c-3.2,1.4-6.7,2-10.6,2c-3.2,0-6.2-0.4-8.9-1.2c-2.7-0.7-5-1.9-7-3.3c-2-1.5-3.5-3.4-4.6-5.6c-1.1-2.2-1.6-4.8-1.6-7.8
	c0-3.2,0.7-6,2-8.4c1.4-2.4,3.5-4.4,6.2-5.9c2.8-1.6,6.2-2.7,10.3-3.5c4.1-0.7,8.8-1.1,14.2-1.1h5.9v-3.3c0-1.7-0.2-3.2-0.6-4.5
	c-0.4-1.3-1-2.4-1.9-3.3c-0.9-0.9-2-1.5-3.5-1.9c-1.5-0.4-3.3-0.6-5.5-0.6c-2.9,0-5.4,0.3-7.7,0.9c-2.2,0.6-4.2,1.2-5.9,1.9
	c-1.7,0.7-3.2,1.3-4.4,1.9c-1.1,0.6-2.1,0.9-2.8,0.9c-0.5,0-1-0.1-1.4-0.4c-0.4-0.3-0.7-0.7-1-1.2c-0.2-0.5-0.4-1.2-0.5-2
	c-0.1-0.8-0.2-1.7-0.2-2.6c0-1.3,0.1-2.3,0.3-3c0.2-0.7,0.7-1.4,1.3-2c0.6-0.6,1.8-1.3,3.3-2c1.6-0.7,3.5-1.4,5.6-2
	c2.1-0.6,4.5-1.1,7-1.5c2.5-0.4,5.2-0.6,7.8-0.6c4.8,0,8.8,0.4,12.2,1.3c3.4,0.8,6.2,2.1,8.4,3.9c2.2,1.7,3.8,4,4.8,6.8
	c1,2.8,1.5,6.1,1.5,9.9V84.1z"/>
<g>
	<g>
		<path class="st0" d="M799.6,38.2c0,4.3-3.3,7.8-7.4,7.8h-4.6c-4.1,0-7.4-3.5-7.4-7.8v-3.9c0-4.3,3.3-7.8,7.4-7.8h4.6
			c4.1,0,7.4,3.5,7.4,7.8V38.2z"/>
		<path class="st0" d="M799.6,78.7c0,4.3-3.3,7.8-7.4,7.8h-4.6c-4.1,0-7.4-3.5-7.4-7.8v-3.9c0-4.3,3.3-7.8,7.4-7.8h4.6
			c4.1,0,7.4,3.5,7.4,7.8V78.7z"/>
	</g>
</g>
</svg>
