<?xml version="1.0" standalone="no"?>
<!DOCTYPE svg PUBLIC "-//W3C//DTD SVG 20010904//EN"
 "http://www.w3.org/TR/2001/REC-SVG-20010904/DTD/svg10.dtd">
<svg version="1.0" xmlns="http://www.w3.org/2000/svg"
 width="300.000000pt" height="300.000000pt" viewBox="0 0 300.000000 300.000000"
 preserveAspectRatio="xMidYMid meet">
<metadata>
Created by potrace 1.11, written by Peter Selinger 2001-2013
</metadata>
<g transform="translate(0.000000,300.000000) scale(0.100000,-0.100000)"
fill="#000000" stroke="none">
<path d="M1765 2568 c-80 -28 -147 -101 -171 -186 -33 -114 25 -250 133 -310
17 -10 16 -14 -4 -79 -12 -37 -38 -120 -58 -183 l-36 -116 -63 4 c-155 10
-317 -96 -358 -235 -14 -50 -5 -48 -204 -37 l-111 7 -12 47 c-62 241 -421 194
-421 -55 0 -193 229 -287 366 -150 24 24 46 56 50 70 l7 27 121 -7 c186 -9
182 -8 185 -56 6 -114 89 -234 199 -289 73 -37 158 -46 233 -27 35 10 70 18
78 20 9 1 39 -41 80 -112 53 -94 62 -116 53 -130 -29 -39 -46 -90 -46 -141 -1
-69 37 -138 96 -178 36 -23 51 -27 118 -27 67 0 82 3 119 28 77 51 111 136 91
227 -10 44 -22 65 -59 101 -65 66 -136 82 -237 53 -19 -5 -30 9 -87 108 l-65
113 43 45 c24 25 56 72 71 105 70 154 6 355 -142 441 -24 14 -44 28 -44 32 0
3 21 71 46 151 25 80 50 160 55 177 9 30 12 32 77 36 106 8 186 59 235 152 16
31 22 58 22 116 0 65 -4 82 -29 128 -34 61 -85 106 -146 127 -48 17 -141 18
-185 3z"/>
<path d="M1365 2234 c-97 -21 -221 -73 -303 -128 -90 -59 -226 -198 -278 -284
-41 -66 -41 -67 -20 -76 105 -45 176 -104 206 -173 14 -30 19 -33 62 -33 25 0
53 -3 62 -6 10 -4 21 7 37 37 12 24 50 72 85 106 74 74 163 120 262 136 l67
11 29 92 29 92 -36 44 c-41 50 -87 142 -87 176 0 26 -14 27 -115 6z"/>
<path d="M2100 2009 c-41 -36 -119 -75 -172 -84 -37 -7 -37 -8 -69 -102 l-31
-94 55 -58 c97 -102 143 -222 134 -355 -6 -92 -33 -174 -79 -237 l-31 -43 20
-34 c18 -33 23 -35 79 -37 88 -4 166 -38 223 -96 l49 -50 20 28 c28 40 71 127
99 203 116 308 40 675 -191 916 l-71 74 -35 -31z"/>
<path d="M916 1203 c-51 -57 -114 -94 -175 -102 l-49 -6 32 -86 c42 -112 93
-187 188 -281 187 -184 389 -268 648 -268 149 0 155 2 132 43 -24 45 -24 208
0 256 17 32 17 34 -7 75 l-25 43 -81 -5 c-139 -8 -250 30 -356 124 -60 52 -88
95 -119 178 -24 66 -35 74 -109 74 -35 0 -45 -6 -79 -45z"/>
</g>
</svg>
